<?xml version="1.0" encoding="UTF-8"?>
<!-- The Best Svg Icon site in the world: iconSvg.co, Visit us! https://iconsvg.co -->
<svg fill="#000000" width="800px" height="800px" version="1.1" viewBox="144 144 512 512" xmlns="http://www.w3.org/2000/svg">
 <path d="m596.38 516.86c23.242-39.91 33.996-85.867 30.875-131.94-3.1211-46.078-19.973-90.164-48.383-126.57-0.19922-0.25391-0.37891-0.53125-0.57812-0.78516-17.828-22.609-39.844-41.566-64.848-55.836l-0.078124-0.046875-0.09375-0.058593-0.03125-0.011719v0.003906c-34.453-20.602-73.906-31.324-114.04-30.996-43.395-0.003906-85.871 12.48-122.36 35.969-4.0938 2.5195-8.0938 5.1719-12.004 7.957-5.7305 4.082-11.18 8.5273-16.488 13.141v-0.003907c-5.5781 4.8008-10.91 9.875-15.977 15.211-13.234 14.098-24.566 29.863-33.707 46.902l-0.011718 0.03125c-18.449 33.953-28.219 71.938-28.445 110.58 0.066407 42.336 11.934 83.816 34.273 119.78 19.668 33.031 47.734 60.266 81.344 78.938l0.15625 0.085937 0.11719 0.070313 0.039063 0.015624v-0.003906c34.336 19.914 73.367 30.305 113.06 30.098 40.988 0.13672 81.246-10.855 116.48-31.805 4.1914-2.4102 8.293-4.9531 12.301-7.6289 28.105-18.742 51.5-43.73 68.352-73.008l0.023438-0.046875 0.015625-0.027343zm-11.824-22.172-51.488-48.387c5.2773-14.727 7.9453-30.262 7.8867-45.902-0.019531-14.664-2.4844-29.227-7.2852-43.082l49.879-52.992h-0.003906c15.363 29.344 23.473 61.938 23.645 95.059 0.17578 33.117-7.5859 65.797-22.633 95.301zm-11.566 20.098c-3.4492 5.3633-7.1484 10.543-11.086 15.543-0.75781 0.95703-1.5469 1.8867-2.3203 2.8281-4.1641 5.082-8.5039 10.016-13.148 14.656-0.19141 0.19141-0.39844 0.35938-0.58594 0.55078-4.5312 4.4883-9.332 8.6992-14.281 12.734-0.95703 0.78125-1.8906 1.582-2.8594 2.3438-4.9688 3.9023-10.129 7.5586-15.48 10.973-0.50781 0.32422-1.0273 0.63281-1.5391 0.95313l-51.434-47.297c3.9336-1.8281 7.7305-3.8672 11.441-6.0234 0.31641-0.18359 0.66406-0.32812 0.97656-0.51562 0.78516-0.46484 1.4922-1.0234 2.2656-1.5039 2.8789-1.7812 5.6836-3.6523 8.4102-5.6172 0.67969-0.48828 1.4219-0.90234 2.0898-1.4023 0.55078-0.41406 1.0352-0.89844 1.582-1.3203 2.832-2.1914 5.5625-4.4883 8.1953-6.8906 0.60156-0.54688 1.2773-1.0195 1.8672-1.5742 0.14062-0.13281 0.26562-0.28516 0.41016-0.41797 3.1133-2.957 6.043-6.082 8.8594-9.3125 0.37109-0.42578 0.79688-0.79688 1.1602-1.2266 0.72656-0.85156 1.3242-1.8008 2.0273-2.6719 1.793-2.2227 3.5156-4.5 5.168-6.8281 0.61328-0.86328 1.3242-1.6523 1.918-2.5312 0.39844-0.59375 0.70703-1.2461 1.0977-1.8477 1.9258-2.9727 3.7305-6.0234 5.4141-9.1562 0.13281-0.24609 0.29297-0.47266 0.42578-0.71875 0.23438-0.44141 0.53125-0.84375 0.76172-1.2891l0.10156-0.22656 49.406 46.434c-0.28516 0.4375-0.55469 0.90234-0.84375 1.3516zm-216.09-1.8867v-0.007813c-4.0391-1.3438-7.9922-2.918-11.852-4.7148-27.363-12.957-48.629-36.031-59.316-64.359-5.375-13.844-8.1211-28.566-8.0977-43.418-0.19531-13.664 2.3438-27.234 7.4688-39.902 1.3672-4.1016 2.957-8.1289 4.7617-12.055 12.777-27.633 35.578-49.375 63.785-60.824 28.23-11.473 59.781-11.719 88.188-0.6875 32.742 12.555 58.355 38.805 70.102 71.844 5.3047 13.238 8.0273 27.367 8.0234 41.625 0.125 15.488-2.9141 30.84-8.9297 45.109-12.797 33.105-40.008 58.559-73.891 69.117-26.086 9.0859-54.574 8.4688-80.242-1.7344zm-67.664 63.824c-0.46094-0.28125-0.92969-0.54297-1.3906-0.82812-5.3477-3.3164-10.535-6.8906-15.57-10.734-0.96875-0.73828-1.9062-1.5156-2.8594-2.2734-5.1211-4.0703-10.117-8.3164-14.82-12.875-0.16406-0.16016-0.31641-0.33594-0.48047-0.49609-4.5508-4.4375-8.8125-9.1484-12.902-13.988-0.83984-0.99609-1.7031-1.9688-2.5234-2.9805-3.9336-4.8438-7.6055-9.8555-11.023-15.031-0.32031-0.48438-0.62109-0.98047-0.9375-1.4688l46.18-49.73c2.0352 3.8906 4.2852 7.625 6.6484 11.27 0.73047 1.1328 1.5195 2.2148 2.2812 3.3242 1.8281 2.6523 3.7344 5.2305 5.7266 7.7344 0.97266 1.2266 1.9414 2.4531 2.9531 3.6406 2.2656 2.6523 4.6211 5.2109 7.0781 7.668 1.2656 1.2773 2.5547 2.5195 3.8672 3.7422 2.3984 2.2305 4.8516 4.3945 7.4023 6.4414 1.5664 1.2617 3.1836 2.4414 4.8008 3.6289 1.9102 1.3984 3.8516 2.7422 5.832 4.0391 1.7188 1.125 3.4258 2.2539 5.1953 3.2969 2.8047 1.6562 5.6836 3.1797 8.6133 4.6289 0.74219 0.36719 1.4375 0.82422 2.1875 1.1758zm-67.215-285.39c3.3125-5.5156 6.8711-10.852 10.672-16.012 0.69531-0.94141 1.4297-1.8516 2.1406-2.7812 4-5.2148 8.1758-10.285 12.656-15.066l0.34375-0.37109c4.4531-4.7305 9.2031-9.1602 14.094-13.422 0.95703-0.83594 1.8984-1.6914 2.8711-2.5078 4.832-4.0508 9.8516-7.8594 15.062-11.43 0.46094-0.31641 0.92969-0.61328 1.3945-0.92188l49.863 46.297c-3.8555 2.1133-7.5625 4.4414-11.18 6.8789-1.1328 0.76172-2.2188 1.5781-3.3281 2.3711-2.6055 1.8672-5.1406 3.8164-7.6055 5.8477-1.1992 0.98828-2.3945 1.9609-3.5586 2.9883-2.668 2.3555-5.2344 4.8047-7.707 7.3516-1.1875 1.2148-2.3398 2.4492-3.4805 3.707-2.2578 2.4922-4.4414 5.043-6.5117 7.6914-1.2305 1.5703-2.3828 3.1875-3.543 4.8047-1.4102 1.9688-2.7695 3.9727-4.0742 6.0156-1.1055 1.7227-2.2109 3.4414-3.2383 5.2109-1.6367 2.8242-3.1445 5.7266-4.5859 8.668-0.39453 0.8125-0.88281 1.5703-1.2617 2.3867l-49.852-46.277c0.28125-0.47266 0.54688-0.95703 0.82812-1.4297zm241.32-17.727 46.496-49.457c0.45312 0.28125 0.91406 0.55469 1.3633 0.83984 5.4531 3.4766 10.707 7.168 15.75 11.074 0.9375 0.72656 1.8438 1.4883 2.7695 2.2305 5.1445 4.1406 10.141 8.4375 14.832 13.031l0.28906 0.30078c4.625 4.5508 8.9609 9.3828 13.133 14.367 0.74219 0.88672 1.5078 1.7578 2.2344 2.6602 3.9805 4.9297 7.7422 10.066 11.277 15.41 0.31641 0.48047 0.62109 0.97266 0.93359 1.4531l-47.406 50.375c-1.8789-3.7695-3.9609-7.4141-6.1602-10.98-0.60547-0.98047-1.2695-1.918-1.8984-2.8828-1.8789-2.8867-3.8594-5.6953-5.9414-8.4336-0.82422-1.082-1.6484-2.1602-2.5039-3.2188-2.457-3.0391-5.0391-5.9688-7.7344-8.8008-0.41406-0.43359-0.79297-0.89844-1.2109-1.3242-3.1445-3.1992-6.4766-6.2188-9.9219-9.1094-0.92188-0.77344-1.8867-1.5-2.8281-2.2539-2.707-2.1562-5.4922-4.2109-8.3555-6.1719-1.0625-0.72656-2.1133-1.4609-3.1992-2.1562-3.8125-2.4531-7.7109-4.793-11.773-6.8867l-0.03125-0.019531zm27.828-60.25-48.582 51.691c-13.973-4.75-28.629-7.1836-43.387-7.207-16.07-0.050782-32.023 2.6797-47.16 8.0703l-52.277-48.535c30.422-16.887 64.641-25.754 99.438-25.77 31.957-0.23828 63.504 7.2227 91.969 21.75zm-280.12 98.625 51.922 48.207c-4.3008 12.965-6.4375 26.551-6.3281 40.211 0.027344 15.18 2.5195 30.258 7.3789 44.641l-48.488 52.219c-15.922-29.809-24.273-63.066-24.332-96.859 0.16016-30.559 6.9297-60.723 19.848-88.418zm97.004 275.32 48.551-52.289-0.003906 0.003906c13.727 4.6523 28.109 7.0625 42.602 7.125 13.219 0.015625 26.363-1.957 38.996-5.8398l54.41 50.023c-28.973 14.582-60.973 22.141-93.406 22.062-31.605 0.13281-62.812-7.0859-91.148-21.082z"/>
</svg>