<?xml version="1.0" encoding="UTF-8"?>
<!-- The Best Svg Icon site in the world: iconSvg.co, Visit us! https://iconsvg.co -->
<svg fill="#000000" width="800px" height="800px" version="1.1" viewBox="144 144 512 512" xmlns="http://www.w3.org/2000/svg">
 <g>
  <path d="m571.5 212.76h-38.379v-13.07c-0.15625-15.965-8.7617-30.648-22.613-38.586-13.852-7.9375-30.875-7.9375-44.727 0-13.852 7.9375-22.457 22.621-22.613 38.586v13.07h-94.207v-13.07c-0.15625-15.961-8.7617-30.648-22.613-38.586-13.848-7.9375-30.871-7.9375-44.723 0-13.852 7.9375-22.453 22.625-22.609 38.586v13.07h-30.523c-12.781-0.14062-25.074 4.875-34.113 13.91-9.0352 9.0352-14.051 21.332-13.914 34.109v336.91c0.13281 12.617 5.2617 24.664 14.266 33.504 9.0039 8.8398 21.145 13.746 33.762 13.645h343.01c12.613 0.10156 24.754-4.8086 33.754-13.648 9.0039-8.8359 14.133-20.887 14.266-33.5v-336.91c0.13672-12.777-4.8789-25.07-13.914-34.105-9.0352-9.0352-21.328-14.051-34.105-13.914zm-107.34-13.07c0.15625-8.4648 4.7617-16.219 12.117-20.406 7.3594-4.1875 16.379-4.1875 23.734 0 7.3594 4.1875 11.961 11.941 12.117 20.406v47.129c-0.15625 8.4648-4.7578 16.223-12.117 20.41-7.3555 4.1875-16.375 4.1875-23.734 0-7.3555-4.1875-11.961-11.945-12.117-20.41zm-184.15 0c0.14453-8.4688 4.7461-16.234 12.105-20.43 7.3594-4.1953 16.387-4.1953 23.75 0 7.3594 4.1953 11.961 11.961 12.105 20.43v47.129c-0.14453 8.4727-4.7461 16.238-12.105 20.434-7.3633 4.1914-16.391 4.1914-23.75 0-7.3594-4.1953-11.961-11.961-12.105-20.434zm-51.516 34.062h30.523v13.066c0.15625 15.965 8.7578 30.652 22.609 38.59 13.852 7.9375 30.875 7.9375 44.723 0 13.852-7.9375 22.457-22.625 22.613-38.59v-13.066h94.207v13.066c0.15625 15.965 8.7617 30.652 22.613 38.59 13.852 7.9336 30.875 7.9336 44.727 0 13.852-7.9375 22.457-22.625 22.613-38.59v-13.066h38.379c7.1914-0.078125 14.113 2.7422 19.199 7.8281 5.0859 5.0859 7.9062 12.008 7.8281 19.199v65.641h-397.07v-65.641c-0.078126-7.1914 2.7461-14.113 7.832-19.199 5.0859-5.0859 12.008-7.9062 19.203-7.8281zm343.01 390.09h-343.01c-7.0508 0.10547-13.855-2.5859-18.926-7.4883-5.0664-4.9062-7.9844-11.617-8.1094-18.668v-250.28h397.07v250.28c-0.125 7.0508-3.043 13.762-8.1094 18.664-5.0664 4.9023-11.871 7.5977-18.918 7.4922z"/>
  <path d="m312.12 380.57h-66.641c-2.7852 0-5.457 1.1055-7.4219 3.0742-1.9688 1.9688-3.0742 4.6367-3.0742 7.4219v66.645c0 2.7852 1.1055 5.457 3.0742 7.4258 1.9648 1.9648 4.6367 3.0742 7.4219 3.0703h66.641c2.7812 0.003906 5.4531-1.1055 7.4219-3.0703 1.9688-1.9688 3.0742-4.6406 3.0742-7.4258v-66.645c0-2.7852-1.1055-5.4531-3.0742-7.4219s-4.6406-3.0742-7.4219-3.0742zm-10.496 66.645h-45.648v-45.652h45.648z"/>
  <path d="m312.12 498.23h-66.641c-2.7852 0-5.457 1.1055-7.4219 3.0742-1.9688 1.9688-3.0742 4.6367-3.0742 7.4219v66.645c0 2.7852 1.1055 5.457 3.0742 7.4258 1.9648 1.9688 4.6367 3.0742 7.4219 3.0703h66.641c2.7812 0.003906 5.4531-1.1016 7.4219-3.0703s3.0742-4.6406 3.0742-7.4258v-66.645c0-2.7852-1.1055-5.4531-3.0742-7.4219s-4.6406-3.0742-7.4219-3.0742zm-10.496 66.645h-45.648v-45.652h45.648z"/>
  <path d="m433.43 380.57h-66.645c-2.7852 0-5.4531 1.1055-7.4219 3.0742s-3.0742 4.6367-3.0742 7.4219v66.645c0 2.7852 1.1055 5.457 3.0742 7.4258 1.9688 1.9648 4.6367 3.0742 7.4219 3.0703h66.645c2.7852 0.003906 5.457-1.1016 7.4258-3.0703s3.0742-4.6406 3.0703-7.4258v-66.645c0.003906-2.7852-1.1016-5.4531-3.0703-7.4219s-4.6406-3.0742-7.4258-3.0742zm-10.496 66.645h-45.652v-45.652h45.652z"/>
  <path d="m433.43 498.23h-66.645c-2.7852 0-5.4531 1.1055-7.4219 3.0742s-3.0742 4.6367-3.0742 7.4219v66.645c0 2.7852 1.1055 5.457 3.0742 7.4258s4.6367 3.0742 7.4219 3.0703h66.645c2.7852 0.003906 5.457-1.1016 7.4258-3.0703s3.0742-4.6406 3.0703-7.4258v-66.645c0.003906-2.7852-1.1016-5.4531-3.0703-7.4219s-4.6406-3.0742-7.4258-3.0742zm-10.496 66.645h-45.652v-45.652h45.652z"/>
  <path d="m554.74 380.57h-66.645c-2.7852 0-5.4531 1.1055-7.4219 3.0742s-3.0742 4.6367-3.0742 7.4219v66.645c0 2.7852 1.1055 5.457 3.0742 7.4258s4.6367 3.0742 7.4219 3.0703h66.645c2.7852 0.003906 5.457-1.1016 7.4258-3.0703s3.0742-4.6406 3.0703-7.4258v-66.645c0.003907-2.7852-1.1016-5.4531-3.0703-7.4219s-4.6406-3.0742-7.4258-3.0742zm-10.496 66.645h-45.652v-45.652h45.652z"/>
  <path d="m554.74 498.23h-66.645c-2.7852 0-5.4531 1.1055-7.4219 3.0742s-3.0742 4.6367-3.0742 7.4219v66.645c0 2.7852 1.1055 5.457 3.0742 7.4258s4.6367 3.0742 7.4219 3.0703h66.645c2.7852 0.003906 5.457-1.1016 7.4258-3.0703s3.0742-4.6406 3.0703-7.4258v-66.645c0.003907-2.7852-1.1016-5.4531-3.0703-7.4219s-4.6406-3.0742-7.4258-3.0742zm-10.496 66.645h-45.652v-45.652h45.652z"/>
 </g>
</svg>