<?xml version="1.0" encoding="UTF-8"?>
<!-- The Best Svg Icon site in the world: iconSvg.co, Visit us! https://iconsvg.co -->
<svg fill="#000000" width="800px" height="800px" version="1.1" viewBox="144 144 512 512" xmlns="http://www.w3.org/2000/svg">
 <path d="m583.66 246.74h-94.211v-62.914c-0.011719-7.8672-6.3906-14.238-14.258-14.246h-148.75c-7.8633 0.011719-14.238 6.3828-14.25 14.246v62.914h-95.855c-7.3047 0.007813-13.227 5.9297-13.234 13.234v36.715c0.007812 7.3047 5.9297 13.227 13.234 13.234h26.137l19.648 283.91c0.71875 9.918 5.1562 19.199 12.426 25.984 7.2734 6.7812 16.836 10.57 26.781 10.598h196.55c10.598 0 20.797-4.0547 28.5-11.336 7.707-7.2773 12.336-17.227 12.941-27.809l16.09-281.35h28.242c7.3047-0.007813 13.223-5.9297 13.23-13.234v-36.715c-0.007813-7.3047-5.9258-13.227-13.23-13.234zm-250.47-56.168h135.27v56.168h-11.809l0.003906-28.082c0-2.7852-1.1055-5.457-3.0742-7.4258s-4.6406-3.0742-7.4219-3.0703h-91.637c-2.7852-0.003906-5.457 1.1016-7.4258 3.0703s-3.0703 4.6406-3.0703 7.4258v28.082h-10.836zm102.47 56.172-70.641-0.003907v-17.586h70.645zm82.719 343.34c-0.30078 5.2305-2.5898 10.145-6.4023 13.742-3.8086 3.5938-8.8477 5.5977-14.086 5.5977h-196.55c-4.6328-0.011719-9.0898-1.7773-12.473-4.9375-3.3867-3.1602-5.4531-7.4844-5.7812-12.105l-19.559-282.46h270.88zm57.523-301.16h-351.8v-21.199h351.8z"/>
</svg>