<?xml version="1.0" encoding="UTF-8"?>
<!-- The Best Svg Icon site in the world: iconSvg.co, Visit us! https://iconsvg.co -->
<svg fill="#000000" width="800px" height="800px" version="1.1" viewBox="144 144 512 512" xmlns="http://www.w3.org/2000/svg">
 <g>
  <path d="m624.34 348.54-218.47-180.82c-3.8711-3.1914-9.457-3.207-13.344-0.035156l-216.83 177.55c-2.4297 1.9961-3.8398 4.9766-3.8438 8.1211v76.914c0 4.0312 2.3086 7.707 5.9414 9.457 3.6289 1.75 7.9453 1.2656 11.098-1.25l31.242-24.781v188.39c0.10938 8.6055 3.5781 16.832 9.668 22.918 6.0859 6.0859 14.309 9.5586 22.914 9.6719h289.66c8.6406-0.011719 16.922-3.4492 23.031-9.5586s9.543-14.391 9.5547-23.031v-192.53l36.129 28.902c3.1523 2.5234 7.4688 3.0195 11.109 1.2695 3.6367-1.7461 5.9492-5.4258 5.9492-9.4609v-73.645c0-3.125-1.3945-6.0898-3.8047-8.0859zm-224.34-77.504 89.246 70.934 64.719 50.852v177.48h-91.258v-121.15c-0.007812-7.0391-5.7109-12.742-12.75-12.75h-100.27c-7.0391 0.007812-12.742 5.7109-12.75 12.75v121.14l-95.82 0.003907v-173.25zm-158.88 331.05v-10.797h95.816v22.395h-84.223c-6.3008-0.24219-11.355-5.2969-11.594-11.598zm116.81 11.598 0.003906-156.29h83.785l-0.003906 156.29zm184.44 0h-79.66v-22.398h91.258v10.801c0.035156 3.0859-1.1758 6.0547-3.3594 8.2344-2.1797 2.1836-5.1484 3.3945-8.2344 3.3633zm64.781-205.26-35.609-28.227c-0.23437-0.21875-0.33984-0.53516-0.59375-0.73828l-164.42-130.05c-3.8203-3.043-9.2383-3.043-13.059 0l-169.34 134.16c-0.10547 0.085937-0.14453 0.22266-0.25 0.30859l-31.035 24.609v-50.164l206.3-168.93 208 172.16z"/>
  <path d="m425.53 525.05h-10.742c-5.7969 0-10.496 4.6992-10.496 10.492 0 5.7969 4.6992 10.496 10.496 10.496h10.742c5.7969 0 10.496-4.6992 10.496-10.496 0-5.793-4.6992-10.492-10.496-10.492z"/>
 </g>
</svg>