<?xml version="1.0" encoding="UTF-8"?>
<!-- The Best Svg Icon site in the world: iconSvg.co, Visit us! https://iconsvg.co -->
<svg fill="#000000" width="800px" height="800px" version="1.1" viewBox="144 144 512 512" xmlns="http://www.w3.org/2000/svg">
 <g>
  <path d="m400 163.03c-44.891 0.050781-87.926 17.906-119.66 49.648-31.742 31.738-49.598 74.773-49.648 119.66 0 90.867 71.492 304.63 169.31 304.63 97.82-0.003906 169.31-213.77 169.31-304.63-0.050782-44.891-17.906-87.926-49.645-119.66-31.742-31.742-74.777-49.598-119.66-49.648zm0 452.95c-76.609 0-148.32-195.04-148.32-283.64l-0.003906 0.003906c0-52.992 28.27-101.95 74.16-128.45s102.43-26.496 148.32 0c45.891 26.496 74.16 75.457 74.16 128.45 0 88.598-71.711 283.64-148.32 283.64z"/>
  <path d="m400 205.03c-33.492 0-65.609 13.305-89.293 36.984-23.68 23.684-36.984 55.801-36.984 89.289 0 33.492 13.305 65.609 36.984 89.293 23.68 23.68 55.797 36.984 89.289 36.984 33.488 0.003907 65.609-13.301 89.289-36.98 23.684-23.68 36.988-55.797 36.988-89.289-0.039063-33.48-13.352-65.574-37.027-89.25-23.672-23.672-55.77-36.992-89.246-37.031zm0 231.56c-27.926 0-54.703-11.09-74.449-30.836-19.742-19.746-30.836-46.523-30.836-74.449 0-27.922 11.094-54.699 30.84-74.445 19.742-19.742 46.523-30.836 74.445-30.836 27.926 0.003906 54.703 11.094 74.449 30.84 19.742 19.746 30.832 46.527 30.832 74.449-0.03125 27.914-11.137 54.672-30.875 74.41-19.734 19.734-46.496 30.836-74.406 30.867z"/>
  <path d="m400 245c-22.895 0-44.848 9.0938-61.035 25.281s-25.281 38.145-25.281 61.035c0 22.895 9.0938 44.848 25.281 61.035s38.141 25.281 61.035 25.281c22.891 0 44.844-9.0938 61.031-25.281s25.281-38.141 25.281-61.035c-0.023438-22.883-9.1289-44.824-25.309-61.004-16.184-16.184-38.121-25.285-61.004-25.312zm0 151.64c-17.328 0-33.941-6.8828-46.191-19.133s-19.133-28.867-19.133-46.191 6.8828-33.941 19.133-46.191 28.863-19.133 46.191-19.133c17.324 0 33.938 6.8828 46.188 19.133 12.254 12.25 19.133 28.867 19.133 46.191-0.019531 17.32-6.9062 33.922-19.152 46.168-12.246 12.246-28.852 19.137-46.168 19.156z"/>
 </g>
</svg>