<?xml version="1.0" encoding="UTF-8"?>
<!-- The Best Svg Icon site in the world: iconSvg.co, Visit us! https://iconsvg.co -->
<svg fill="#000000" width="800px" height="800px" version="1.1" viewBox="144 144 512 512" xmlns="http://www.w3.org/2000/svg">
 <g>
  <path d="m572.38 186.54h-344.75c-10.895 0.011719-21.336 4.3438-29.035 12.047-7.7031 7.6992-12.035 18.141-12.047 29.035v344.75c0.011719 10.891 4.3438 21.332 12.047 29.035 7.6992 7.6992 18.141 12.031 29.035 12.047h344.75c10.891-0.015625 21.332-4.3477 29.035-12.047 7.6992-7.7031 12.031-18.145 12.047-29.035v-344.75c-0.015625-10.895-4.3477-21.336-12.047-29.035-7.7031-7.7031-18.145-12.035-29.035-12.047zm20.09 385.83c-0.007813 5.3242-2.125 10.434-5.8906 14.199s-8.875 5.8828-14.199 5.8906h-344.75c-5.3281-0.007813-10.434-2.125-14.203-5.8906-3.7656-3.7656-5.8828-8.875-5.8867-14.199v-344.75c0.003906-5.3281 2.1211-10.434 5.8867-14.203 3.7695-3.7656 8.875-5.8828 14.203-5.8867h344.75c5.3242 0.003906 10.434 2.1211 14.199 5.8867 3.7656 3.7695 5.8828 8.875 5.8906 14.203z"/>
  <path d="m282.47 351.07c16.016 0.003906 31.102-7.5352 40.715-20.348h190.46c10.984-0.054688 21.109-5.9453 26.59-15.469 5.4766-9.5195 5.4766-21.238 0-30.758-5.4805-9.5234-15.605-15.414-26.59-15.469h-188.89c-10.5-14.777-27.945-23.012-46.031-21.73-18.082 1.2852-34.188 11.906-42.492 28.02-8.3086 16.113-7.6133 35.391 1.832 50.867 9.4453 15.473 26.273 24.906 44.402 24.887zm231.18-61.051c5.4102 0.046875 9.7695 4.4453 9.7695 9.8555s-4.3594 9.8086-9.7695 9.8555h-180.31c0.085938-0.39062 0.054688-0.81641 0.12891-1.2109 0.63672-3.1133 0.97656-6.2812 1.0078-9.4609-0.015625-2.7109-0.23438-5.418-0.65234-8.0977-0.046875-0.30469-0.027344-0.64062-0.078125-0.94141zm-231.18-21.977c5.6523 0.09375 11.176 1.6875 16.012 4.6172 4.832 2.9297 8.8008 7.0938 11.5 12.059 2.4219 4.3867 3.6289 9.3359 3.5039 14.34 0.09375 5.375-1.4961 10.645-4.5508 15.07-0.26953 0.36719-0.51172 0.75391-0.72656 1.1562-2.6094 4.5156-6.3633 8.2617-10.883 10.855-4.5195 2.5977-9.6445 3.957-14.855 3.9375-11.082 0-21.32-5.9141-26.863-15.508-5.5391-9.5977-5.5391-21.422 0-31.02 5.543-9.5938 15.781-15.508 26.863-15.508z"/>
  <path d="m513.65 471.07h-188.89c-10.504-14.777-27.949-23.012-46.031-21.727s-34.188 11.902-42.496 28.02c-8.3047 16.113-7.6094 35.391 1.8359 50.863 9.4453 15.477 26.273 24.906 44.402 24.887 16.016 0.007813 31.102-7.5312 40.715-20.348h190.46c10.984-0.050781 21.109-5.9414 26.59-15.465 5.4766-9.5234 5.4766-21.238 0-30.762-5.4805-9.5234-15.605-15.414-26.59-15.469zm-231.18 61.051c-11.082 0-21.32-5.9102-26.863-15.508-5.5391-9.5977-5.5391-21.422 0-31.016 5.543-9.5977 15.781-15.508 26.863-15.508 5.6523 0.089844 11.176 1.6836 16.012 4.6133 4.832 2.9297 8.8008 7.0938 11.5 12.062 2.4219 4.3828 3.6289 9.332 3.5039 14.34 0.09375 5.375-1.4961 10.645-4.5508 15.066-0.26953 0.37109-0.51172 0.75781-0.72656 1.1602-2.6094 4.5117-6.3633 8.2578-10.883 10.855s-9.6445 3.9531-14.855 3.9336zm231.18-20.348h-180.31c0.085938-0.39063 0.054688-0.81641 0.12891-1.2109 0.63672-3.1133 0.97656-6.2812 1.0078-9.457-0.015625-2.7109-0.23438-5.418-0.65234-8.0977-0.046875-0.30469-0.027344-0.64062-0.078125-0.94141l179.9-0.003906c5.4102 0.046875 9.7695 4.4453 9.7695 9.8555 0 5.4102-4.3594 9.8086-9.7695 9.8555z"/>
  <path d="m509.96 347.99c-16.02-0.003906-31.105 7.5352-40.715 20.348h-190.45c-8.207-0.039063-16.094 3.1914-21.91 8.9805-5.8203 5.7891-9.0898 13.66-9.0898 21.867 0 8.207 3.2695 16.078 9.0898 21.867 5.8164 5.7891 13.703 9.0195 21.91 8.9805h188.88c10.5 14.777 27.945 23.012 46.031 21.727 18.082-1.2852 34.188-11.902 42.492-28.016 8.3086-16.113 7.6133-35.395-1.832-50.867-9.4453-15.473-26.273-24.906-44.402-24.887zm-231.17 61.051c-2.6289 0.023438-5.1602-1.0039-7.0234-2.8555-1.8672-1.8516-2.918-4.3711-2.918-7s1.0508-5.1484 2.918-7c1.8633-1.8516 4.3945-2.8789 7.0234-2.8555h180.3c-0.085938 0.39062-0.054688 0.81641-0.12891 1.2109-0.64063 3.1133-0.97656 6.2812-1.0078 9.4609 0.015625 2.7109 0.23438 5.418 0.65234 8.0977 0.046875 0.30469 0.027343 0.64062 0.078125 0.94141zm231.17 21.977c-5.6523-0.09375-11.18-1.6875-16.012-4.6172-4.8359-2.9297-8.8047-7.0938-11.5-12.059-2.4219-4.3867-3.6328-9.3359-3.5039-14.34-0.09375-5.375 1.4961-10.645 4.5508-15.07 0.26562-0.36719 0.51172-0.75391 0.72656-1.1562 2.6055-4.5156 6.3594-8.2617 10.879-10.855 4.5195-2.5977 9.6484-3.957 14.859-3.9375 11.082 0 21.32 5.9141 26.859 15.508 5.543 9.5977 5.543 21.422 0 31.02-5.5391 9.5938-15.777 15.508-26.859 15.508z"/>
 </g>
</svg>