<?xml version="1.0" encoding="UTF-8"?>
<!-- The Best Svg Icon site in the world: iconSvg.co, Visit us! https://iconsvg.co -->
<svg fill="#000000" width="800px" height="800px" version="1.1" viewBox="144 144 512 512" xmlns="http://www.w3.org/2000/svg">
 <g>
  <path d="m491.49 356.05c-0.10938-37.883-15.262-74.172-42.125-100.88-26.863-26.715-63.238-41.66-101.12-41.551-37.883 0.10547-74.172 15.258-100.88 42.121-26.711 26.863-41.66 63.238-41.551 101.12 0.10547 37.883 15.258 74.172 42.121 100.89 26.863 26.711 63.238 41.656 101.12 41.547 37.906-0.039062 74.23-15.172 100.96-42.051 26.727-26.875 41.652-63.289 41.48-101.19zm-142.44 122.25c-32.316 0.10547-63.352-12.629-86.277-35.402-22.926-22.777-35.867-53.727-35.973-86.043-0.10938-32.316 12.625-63.352 35.402-86.277 22.773-22.926 53.723-35.867 86.039-35.973 32.316-0.10938 63.352 12.625 86.277 35.402 22.926 22.773 35.867 53.723 35.977 86.039-0.035156 32.273-12.816 63.227-35.562 86.121-22.742 22.895-53.609 35.883-85.883 36.133z"/>
  <path d="m611.36 522.26-99.379-95.555h0.003906c9.8789-22.242 14.961-46.32 14.906-70.66-0.10938-47.273-18.988-92.562-52.492-125.91-33.5-33.352-78.879-52.027-126.15-51.918-47.273 0.10547-92.566 18.984-125.91 52.488-33.352 33.5-52.027 78.879-51.922 126.15 0.10547 47.273 18.988 92.566 52.488 125.91 33.5 33.352 78.879 52.027 126.15 51.922 29.523 0.011719 58.57-7.4336 84.445-21.648l97.359 93.559c11.172 10.758 26.164 16.621 41.668 16.293 15.5-0.32422 30.234-6.8125 40.941-18.031 10.707-11.215 16.504-26.234 16.109-41.734-0.39453-15.504-6.9492-30.207-18.215-40.863zm-419.95-166.21c-0.10156-41.77 16.422-81.867 45.922-111.44 29.5-29.574 69.555-46.195 111.32-46.195s81.824 16.621 111.33 46.195c29.5 29.57 46.02 69.668 45.918 111.44 0.16797 23.84-5.2812 47.387-15.898 68.73-1.5977 3.3867-3.332 6.7148-5.1914 9.9844v0.003906c-13.285 23.176-32.273 42.57-55.16 56.344-24.266 14.82-52.16 22.641-80.598 22.586-41.797-0.046874-81.867-16.672-111.42-46.227-29.555-29.555-46.176-69.625-46.223-111.42zm406.71 234.09h-0.011719c-6.8828 7.043-16.246 11.121-26.098 11.367-9.8477 0.24219-19.398-3.3672-26.625-10.059l-93.48-89.828c0.32812-0.23438 0.61719-0.51563 0.94531-0.75 4.168-3.0117 8.1719-6.2383 12.062-9.6016 1.1094-0.96094 2.2031-1.9258 3.2891-2.9141 4.0078-3.6406 7.8945-7.4023 11.551-11.379 0.12109-0.13281 0.25781-0.25391 0.37891-0.38672 3.832-4.1953 7.3867-8.6094 10.785-13.129 0.75391-1.0039 1.4805-2.0195 2.2148-3.0391 3-4.1758 5.8359-8.4492 8.4414-12.852 0.21484-0.36719 0.48828-0.70312 0.70312-1.0703l94.555 90.914v-0.003906c7.2305 6.8125 11.457 16.227 11.746 26.164 0.22266 9.8984-3.5469 19.473-10.457 26.566z"/>
 </g>
</svg>