<?xml version="1.0" encoding="UTF-8"?>
<!-- The Best Svg Icon site in the world: iconSvg.co, Visit us! https://iconsvg.co -->
<svg fill="#000000" width="800px" height="800px" version="1.1" viewBox="144 144 512 512" xmlns="http://www.w3.org/2000/svg">
 <path d="m399.59 181.58c-49.223 0.23828-96.941 17.012-135.49 47.621-38.547 30.609-65.695 73.285-77.086 121.18-11.387 47.887-6.3555 98.215 14.285 142.9 20.645 44.688 55.703 81.141 99.551 103.52 30.523 15.719 64.41 23.773 98.742 23.469 33.965 0.17969 67.504-7.5781 97.938-22.66 44.23-22.109 79.703-58.5 100.68-103.28 20.973-44.781 26.219-95.328 14.891-143.46-11.332-48.137-38.578-91.035-77.324-121.76-38.75-30.723-86.73-47.465-136.18-47.523zm100.23 357.12c-1.9023 1.3477-3.8008 2.7109-5.7422 3.9766-2.1484 1.4023-4.3438 2.6992-6.5391 4-1.9297 1.1445-3.8438 2.3086-5.8086 3.375-2.293 1.2422-4.6367 2.3672-6.9727 3.5-1.9414 0.94531-3.8711 1.9258-5.8438 2.793-2.4336 1.0703-4.9141 2.0039-7.3867 2.9609-1.9453 0.75-3.8672 1.5547-5.8359 2.2305-2.5938 0.89453-5.2305 1.6328-7.8633 2.3984-1.9102 0.55469-3.7969 1.1797-5.7266 1.6719-2.8008 0.71094-5.6445 1.25-8.4805 1.8164-1.8125 0.36328-3.6055 0.80859-5.4336 1.1133-3.1562 0.52734-6.3555 0.86328-9.5547 1.2148-1.5508 0.16797-3.0781 0.43359-4.6367 0.5625-4.7695 0.39453-9.5742 0.60547-14.41 0.60547-4.8086 0-9.6016-0.21875-14.371-0.62891-1.5977-0.13672-3.1758-0.41797-4.7695-0.60156-3.1562-0.36328-6.3125-0.70312-9.4375-1.2383-1.918-0.32812-3.8008-0.80859-5.7031-1.2031-2.7656-0.57422-5.5391-1.1133-8.2734-1.8203-2.0312-0.52734-4.0195-1.1953-6.0312-1.8008-2.5508-0.76562-5.1133-1.4922-7.625-2.375-2.082-0.73047-4.1133-1.5898-6.1641-2.4023-2.375-0.9375-4.7617-1.8477-7.0938-2.8945-2.0742-0.92969-4.0977-1.9766-6.1406-2.9883-2.2383-1.1094-4.4844-2.1992-6.6719-3.4102-2.0156-1.1133-3.9727-2.3281-5.9453-3.5195-2.1328-1.293-4.2734-2.5781-6.3516-3.9648-1.9023-1.2695-3.7461-2.6289-5.6016-3.9727-1.4141-1.0273-2.8164-2.0781-4.2031-3.1523v-0.003907c1.1562-35.789 20.562-68.492 51.422-86.652l0.20312 0.12891v-0.003906c3.4023 2.5 6.9844 4.7461 10.711 6.7266 0.60156 0.32031 1.1875 0.66406 1.793 0.97266 3.6133 1.832 7.3516 3.4023 11.184 4.707 0.70703 0.24219 1.418 0.46484 2.1328 0.69141 3.918 1.2383 7.918 2.1992 11.969 2.8789 0.58203 0.097657 1.1758 0.14844 1.7617 0.23438h0.003907c4.3711 0.65625 8.7852 0.99609 13.207 1.0195 4.5078-0.023438 9.0078-0.375 13.461-1.0469 0.55859-0.082031 1.1211-0.12891 1.6797-0.22266v0.003906c4.2383-0.70312 8.418-1.6992 12.512-2.9844 0.55078-0.17188 1.0977-0.33984 1.6445-0.52344h0.003906c4.1211-1.3633 8.1367-3.0273 12.016-4.9766 0.30469-0.15234 0.59766-0.32031 0.89844-0.47656 3.9883-2.0469 7.8047-4.4102 11.418-7.0664l0.125-0.078125v0.003906c31.035 18.227 50.25 51.383 50.645 87.371-1.3828 1.0391-2.7734 2.0547-4.1719 3.0508zm-54.562-110.84c-12.668 10.977-28.906 16.949-45.668 16.797-16.82 0.078125-33.062-6.1172-45.566-17.367-16.574-12.91-26.094-32.879-25.688-53.883-0.10938-19.078 7.3945-37.406 20.844-50.934 13.449-13.527 31.738-21.133 50.816-21.133 19.074 0 37.363 7.6055 50.812 21.133s20.953 31.855 20.844 50.934c0.14453 21.266-9.6094 41.391-26.395 54.453zm24.277 5.8438c14.961-16.512 23.203-38.02 23.109-60.297 0.10547-24.641-9.6094-48.309-26.996-65.77-17.387-17.461-41.012-27.277-65.652-27.277s-48.27 9.8164-65.656 27.277c-17.387 17.461-27.102 41.129-26.996 65.77-0.16406 22.297 8 43.852 22.887 60.453-28.793 19.188-48.422 49.375-54.281 83.477-30.516-32.523-47.051-75.727-46.055-120.31 1-44.59 19.453-87.008 51.395-118.14 31.941-31.125 74.824-48.477 119.42-48.32 44.602 0.15234 87.359 17.801 119.09 49.148 31.727 31.348 49.887 73.891 50.574 118.49 0.6875 44.594-16.148 87.68-46.887 119.99-5.1719-34.547-24.785-65.266-53.949-84.492z"/>
</svg>